<svg version="1.2" xmlns="http://www.w3.org/2000/svg" viewBox="0 0 500 500" width="500" height="500">
	<title>Feelinks</title>
	<style>
		.s0 { fill: #F7F2EE
        } 
		.s1 { fill: #60a593 } 
	</style>
	<g id="&lt;Group&gt;">
		<path id="&lt;Path&gt;" class="s0" d="m298.7 205.9c-0.8-9-2.9-17.2-6.3-24.5-4.9-11-12.7-20.3-23.5-28-4.6-3.2-9.6-6.1-14.9-8.5-15.6-7.2-34-10.8-55.2-10.8-34 0-61.4 11.1-81.4 33.1-20.1 22.1-30.3 50.8-30.3 85.2q0 5 0.4 10c-7.2 7.2-14.8 14.2-23.4 18.6-27.6 14.1-59.2 13-63 14.4l-1 55.2c4.7-3.6 44.9-8.3 78.5-25.5 8.5-4.3 16.6-9.6 23.9-15 8.4 14.6 21 27.5 37.4 38.3 18.1 12 39.4 18.1 63.2 18.1 20.2 0 39-2.2 55.7-6.4 2.4-0.6 4.5-1.2 6.6-1.8-6.7-2.6-12.9-5.9-18.9-9.9q-19.3-12.8-31.4-29.2c-4.1 0.4-8.2 0.5-12 0.5-10.3 0-21.3-1.5-32.9-4.6-7.7-2.1-13-5.1-17.5-9-4.5-4-8.1-9-10.8-14.5l-1.9-3.9 10.6 2.2c19.6 4 36.3 5.4 49.6 4.2 0.4-0.1 0.9-0.1 1.3-0.1-5.2-13.5-7.8-27.4-7.8-41.6q0-1.5 0.1-3-9.2 1.2-19 1.2c-11.2 0-23-1.2-35.3-3.4l-3.5-0.7-0.7-3.5c-3.1-17 2-31.9 15.3-44.4 13-12.1 29.2-18.2 48.2-18.2 5.1 0 9.8 0.3 14.3 1 8.5 1.3 15.8 3.8 21.9 7.6 7.9 5 12.7 11.2 14.4 18.6q0.6 2.9 0.6 6c0 6.8-3 12.9-8.9 18.3-0.1 3.5 0.2 7.3 0.9 11.1l0.6 3.5 3.6 0.7c12.3 2.2 24 3.4 35.3 3.4 2.6 0 5.1-0.1 7.7-0.2 7.4-12.4 10.5-27.1 9.5-44.5z"/>
	</g>
	<g id="&lt;Group&gt;">
		<path id="&lt;Path&gt;" class="s1" d="m471.5 250.3c-15.7 8.7-38.1 27.9-57.8 38.9-35.8 20-59.9 24.4-63.6 25.9-14.8 3.1-28.4 4.6-40.4 4.6-9.2 0-31.6-4.3-32.8-4.6-5.4-1.5-9.9-3.4-13.7-5.7q-8.1-4.7-11.7-12l-4.9-9.7 10.6 2.2c19.7 4 36.3 5.4 49.7 4.2 32.5-2.8 57.7-11.9 75.1-27.1 17.2-15.1 24.9-35.1 23.3-61.1-2-22.5-11.8-39.7-29.7-52.5-18.2-12.8-41.7-19.3-70.2-19.3-19.3 0-36.5 3.5-51.4 10.8 5.3 2.4 10.3 5.3 14.9 8.5 10.8 7.7 18.6 17 23.5 28 4.2-0.7 8.5-1 13-1 14.9 0 27 2.9 36.2 8.6 10 6.2 15 14.5 15 24.6 0 8.8-4.9 16.5-14.7 22.7-8.8 5.6-19.9 9.5-33.2 11.8-6.3 1.2-12.8 2-19.5 2.3-2.6 0.1-5.1 0.2-7.7 0.2-11.3 0-23-1.2-35.3-3.4l-3.6-0.7-0.6-3.5c-0.7-3.8-1-7.6-0.9-11.1 0.3-8.8 3.1-16.9 8.3-24.3-1.7-7.4-6.5-13.6-14.4-18.6-6.1-3.8-13.4-6.3-21.9-7.6-12.5 19-18.9 41.8-19.3 68q-0.1 1.5-0.1 3c0 14.2 2.6 28.1 7.8 41.6q2.2 5.6 4.9 11 3.7 7.4 8.7 14.2 12.1 16.4 31.4 29.2c6 4 12.2 7.3 18.9 9.9 13.5 5.5 28.3 8.2 44.3 8.2 20.3 0 39-2.2 55.8-6.4 12-3.1 22-6.8 28.5-9.6 11.5-4.4 25.2-10.7 41.3-19.6 30.8-17.1 56-37.5 63.9-39.3 0.6-0.2-16.9-21.5-27.7-41.3z"/>
	</g>
</svg>