<svg version="1.2" xmlns="http://www.w3.org/2000/svg" viewBox="0 0 1000 1000" width="1000" height="1000">
	<title>Feelinks - Named</title>
	<style>
		.s0 { fill: #f7f2ee } 
		.s1 { fill: #60a593 } 
	</style>
	<g id="&lt;Group&gt;">
		<g id="&lt;Group&gt;">
			<path id="&lt;Compound Path&gt;" class="s0" d="m435 415.5c2.9-9.7 12-16.3 22.6-16.3 13 0 23.6 9.8 23.6 23 0 11.8-8.8 20.9-20 22.6-16.8 2.3-31-13.1-26.2-29.3zm4.2 178.3v-125.3c0-3.7 3-6.7 6.7-6.7h23.4c3.7 0 6.7 3 6.7 6.7v125.3c0 3.6-3 6.6-6.7 6.6h-23.4c-3.7 0-6.7-3-6.7-6.6z"/>
		</g>
	</g>
	<g id="&lt;Group&gt;">
		<g id="&lt;Group&gt;">
			<path id="&lt;Compound Path&gt;" class="s0" d="m637.1 513.6v79.8c0 3.9-3.1 7-7 7h-22.7c-3.9 0-7.1-3.1-7.1-7v-68.6c0-21-10.1-31.4-26.6-31.4-17.6 0-30.9 12.2-30.9 34.8v65.2c0 3.9-3.1 7-7 7h-22.7c-3.9 0-7-3.1-7-7v-124.5c0-3.9 3.1-7.1 7-7.1h21.9c3.9 0 7.1 3.2 7.1 7.1v13.4c9.5-14.2 26.6-22.5 45.6-22.5 29 0 49.4 19.4 49.4 53.8z"/>
		</g>
	</g>
	<g id="&lt;Group&gt;">
		<g id="&lt;Group&gt;">
			<path id="&lt;Compound Path&gt;" class="s0" d="m757 597.9l-37.7-52.3c-1-1.3-2.6-2.2-4.3-2.2h-7.3c-2.9 0-5.3 2.4-5.3 5.4v46.3c0 2.9-2.4 5.3-5.3 5.3h-26.2c-2.9 0-5.3-2.4-5.3-5.3v-178.5c0-2.9 2.4-5.3 5.3-5.3h26.2c2.9 0 5.3 2.4 5.3 5.3v88.5c0 3.4 2.8 6.2 6.2 6.2h7.4c1.9 0 3.7-0.9 4.9-2.4l34.8-44.7c1.2-1.5 3-2.4 4.9-2.4h26.8c5.1 0 8.1 6 4.9 10.1l-40.4 51.8c-1.7 2.2-1.7 5.2-0.1 7.5l43.6 59.4c3 4.1 0.1 9.8-5 9.8h-28.3c-2 0-3.9-0.9-5.1-2.5z"/>
		</g>
	</g>
	<g id="&lt;Group&gt;">
		<g id="&lt;Group&gt;">
			<path id="&lt;Compound Path&gt;" class="s0" d="m814.2 555.1h19.8c3.3 0 6.3 2 7.5 5.1 3.4 8.4 12.6 13.5 25.7 13.5 14 0 21.7-5.9 21.7-14.7 0-6.5-4.9-10.9-20.7-13.7l-22.8-4.2c-27.2-4.9-39.6-18.1-39.6-37.3 0-25.6 21.7-44 58.5-44 30.6 0 50.9 12.7 56.9 34.9 1.4 5.1-2.6 10.1-7.9 10.1h-19.7c-3.2 0-6.1-1.9-7.4-4.9-3.4-7.3-11.6-11.9-24.2-11.9-14 0-21 5.7-21 13.2 0 6 4.4 9.3 20.5 12.4l22.5 4.2c27.2 4.9 40.2 17.6 40.2 38.3 0 27.2-22.1 46.4-58.8 46.4-32 0-53.9-14.4-59.2-37.5-1.1-5.1 2.8-9.9 8-9.9z"/>
		</g>
	</g>
	<g id="&lt;Group&gt;">
		<path id="&lt;Path&gt;" class="s0" d="m284.1 504.6c-0.5-5.3-1.7-10.2-3.8-14.5-2.9-6.6-7.5-12.1-14-16.7-2.7-2-5.7-3.7-8.9-5.1-9.2-4.3-20.3-6.5-32.9-6.5-20.2 0-36.6 6.7-48.5 19.8-12 13.2-18.1 30.3-18.1 50.8q0 3 0.3 5.9c-4.3 4.4-8.8 8.5-14 11.1-16.5 8.5-35.3 7.8-37.5 8.7l-0.6 32.8c2.8-2.1 26.7-4.9 46.8-15.2 5.1-2.6 9.8-5.7 14.2-8.9 5.1 8.7 12.5 16.4 22.3 22.8 10.8 7.2 23.5 10.8 37.7 10.8 12.1 0 23.3-1.3 33.2-3.8 1.4-0.4 2.7-0.7 3.9-1.1q-5.9-2.3-11.2-5.9-11.5-7.6-18.7-17.4c-2.5 0.2-4.9 0.3-7.2 0.3-6.1 0-12.7-0.9-19.6-2.8-4.6-1.2-7.8-2.9-10.4-5.3-2.8-2.4-4.9-5.4-6.5-8.7l-1.1-2.2 6.3 1.2c11.7 2.4 21.6 3.2 29.6 2.5 0.2 0 0.5 0 0.8 0-3.1-8.1-4.7-16.4-4.7-24.8q0-0.9 0-1.8-5.4 0.7-11.3 0.7c-6.7 0-13.7-0.7-21-2l-2.1-0.4-0.4-2.1c-1.9-10.1 1.2-19.1 9.1-26.5 7.7-7.2 17.4-10.8 28.7-10.8 3 0 5.9 0.1 8.5 0.6q7.7 1.1 13.1 4.5c4.7 2.9 7.6 6.6 8.6 11.1q0.4 1.7 0.4 3.6c0 4-1.8 7.7-5.3 10.8-0.1 2.2 0 4.4 0.5 6.7l0.4 2.1 2.1 0.4q11 2 21 2c1.6 0 3.1 0 4.6-0.1 4.4-7.4 6.3-16.2 5.7-26.6z"/>
	</g>
	<g id="&lt;Group&gt;">
		<path id="&lt;Path&gt;" class="s1" d="m387.1 531.1c-9.4 5.2-22.7 16.7-34.5 23.2-21.3 11.9-35.7 14.6-37.9 15.5-8.8 1.8-16.9 2.7-24.1 2.7-5.4 0-18.8-2.6-19.5-2.8q-4.8-1.2-8.2-3.3-4.8-2.8-7-7.2l-2.8-5.7 6.3 1.2c11.7 2.4 21.6 3.2 29.5 2.5 19.4-1.6 34.5-7 44.9-16.1 10.2-9 14.8-21 13.9-36.5-1.3-13.3-7.1-23.6-17.8-31.2-10.8-7.7-24.9-11.6-41.8-11.6-11.5 0-21.8 2.2-30.7 6.5 3.2 1.4 6.2 3.1 8.9 5.1 6.5 4.6 11.1 10.1 14 16.7 2.5-0.5 5.1-0.6 7.8-0.6 8.8 0 16.1 1.7 21.6 5.1 5.9 3.7 8.9 8.6 8.9 14.7 0 5.2-2.9 9.8-8.8 13.5-5.2 3.3-11.9 5.7-19.8 7-3.7 0.8-7.6 1.2-11.6 1.4-1.5 0.1-3 0.1-4.6 0.1q-10 0-21-2l-2.1-0.4-0.4-2.1c-0.5-2.3-0.6-4.5-0.5-6.7 0.1-5.2 1.8-10 4.9-14.4-1-4.5-3.9-8.2-8.6-11.1q-5.4-3.4-13.1-4.5c-7.4 11.3-11.2 24.9-11.5 40.5q0 0.9 0 1.8c0 8.4 1.6 16.7 4.7 24.8q1.2 3.3 2.9 6.6 2.2 4.4 5.2 8.4 7.2 9.8 18.7 17.4 5.3 3.6 11.2 5.9c8.1 3.3 16.9 4.9 26.4 4.9 12.2 0 23.3-1.3 33.3-3.8 7.2-1.9 13.1-4.1 17-5.7 6.9-2.7 15-6.4 24.6-11.7 18.4-10.2 33.4-22.4 38.1-23.5 0.4 0-10-12.8-16.5-24.6z"/>
	</g>
	<g id="&lt;Group&gt;">
		<path id="&lt;Path&gt;" class="s0" d="m133 428.4h40.7c2 0 3.6-1.6 3.6-3.6v-23.1c0-2-1.6-3.6-3.6-3.6h-55.7c-28.5 0-43 14.5-43 42.8v22 32.1 23.9 78c0 1.9 1.6 3.5 3.6 3.5h29.6c2 0 3.6-1.6 3.6-3.5v-98.3c0-2 1.6-3.6 3.6-3.6h29.6c2 0 3.6-1.6 3.6-3.6v-24.9c0-2-1.6-3.6-3.6-3.6h-29.6c-2 0-3.6-1.6-3.6-3.6v-9.7c0-11.7 9.5-21.2 21.2-21.2z"/>
	</g>
	<g id="&lt;Group&gt;">
		<g id="&lt;Group&gt;">
			<path id="&lt;Compound Path&gt;" class="s0" d="m372.4 592.5v-173.2c0-4.4 3.5-8 7.9-8h20.9c4.4 0 8 3.6 8 8v173.2c0 4.4-3.6 7.9-8 7.9h-20.9c-4.4 0-7.9-3.5-7.9-7.9z"/>
		</g>
	</g>
</svg>